<svg id="Слой_2" data-name="Слой 2" xmlns="http://www.w3.org/2000/svg" viewBox="0 0 21.87 21.94"><defs><style>.cls-1{fill:none;stroke:#000;stroke-miterlimit:10;}</style></defs><title>phone</title><path class="cls-1" d="M91,76.44A10.44,10.44,0,1,1,80.53,66,10.45,10.45,0,0,1,91,76.44Z" transform="translate(-69.6 -65.47)"/><path class="cls-1" d="M76.73,70.65c.83-.11,1.48,1.51,2.39,2.26a.33.33,0,0,1,.1.43c-.55.85-1.61,1.11-1.55,1.93,0,.23,0,.42,1.38,1.9s1.69,1.72,2.08,1.76a2.47,2.47,0,0,0,1.52-.53c.56-.46.5-.88.87-1,.16,0,.41,0,1.85,1.43.74.74.86.93.84,1.16s-.4.53-1.11.94a4.76,4.76,0,0,1-1.41.63,3.47,3.47,0,0,1-2.12-.44,15,15,0,0,1-5.85-5.31,4.33,4.33,0,0,1-.81-2.53,4,4,0,0,1,.54-1.5S76.14,70.74,76.73,70.65Z" transform="translate(-69.6 -65.47)"/></svg>